<?xml version="1.0" encoding="utf-8"?>
<!-- Generator: Adobe Illustrator 22.0.0, SVG Export Plug-In . SVG Version: 6.00 Build 0)  -->
<svg version="1.1" id="Capa_1" xmlns="http://www.w3.org/2000/svg" xmlns:xlink="http://www.w3.org/1999/xlink" x="0px" y="0px"
	 viewBox="0 0 97.333 108.807" enable-background="new 0 0 97.333 108.807" xml:space="preserve">
<path fill="#FFFFFF" d="M82.819,66.595c0.074-1.909-0.101-3.361-0.146-3.693v-0.895c0.762,0.572,1.698,0.924,2.723,0.924h0.785
	c6.149,0,11.152-5.003,11.152-11.152c0-4.794-3.046-8.879-7.3-10.452C89.871,18.512,71.268,0,48.416,0
	C25.501,0,6.853,18.613,6.793,41.515C2.804,43.216,0,47.175,0,51.778c0,6.149,5.003,11.152,11.152,11.152H11.8
	c0.945,0,1.816-0.306,2.534-0.815c0.256,3.818-0.138,15.954-13.578,26.827c-0.403,0.326-0.49,0.905-0.201,1.335
	c0.129,0.192,1.399,1.926,6.151,3.589c6.043,2.116,14.863,3.208,26.212,3.255c1.97,6.742,8.198,11.685,15.568,11.685
	c6.9,0,12.791-4.336,15.134-10.42c24.586-0.143,32.362-7.827,32.683-8.158c0.203-0.209,0.305-0.496,0.279-0.786
	c-0.026-0.29-0.177-0.555-0.414-0.725C85.912,81.373,83.401,71.748,82.819,66.595z M95.333,51.778c0,5.047-4.105,9.152-9.152,9.152
	h-0.785c-1.413,0-2.562-1.15-2.562-2.563V45.189c0-1.413,1.149-2.563,2.562-2.563h0.785C91.228,42.626,95.333,46.732,95.333,51.778z
	 M48.416,2C69.985,2,87.573,19.327,88.02,40.791c-0.6-0.1-1.211-0.165-1.839-0.165h-0.785c-1.041,0-1.99,0.364-2.759,0.953
	C81.892,23.352,66.836,8.75,48.429,8.75c-18.334,0-33.347,14.484-34.203,32.61c-0.696-0.462-1.529-0.735-2.426-0.735h-0.647
	c-0.804,0-1.587,0.09-2.343,0.252C9.211,19.374,26.817,2,48.416,2z M11.8,60.931h-0.647C6.106,60.931,2,56.825,2,51.778
	c0-5.046,4.106-9.152,9.152-9.152H11.8c1.272,0,2.305,0.997,2.384,2.25v13.805C14.105,59.933,13.072,60.931,11.8,60.931z
	 M64.245,96.383c0.295-1.222,0.469-2.492,0.469-3.803v-4.179c0-0.553-0.447-1-1-1s-1,0.447-1,1v4.179
	c0,7.845-6.382,14.227-14.227,14.227c-7.845,0-14.227-6.382-14.227-14.227V81.76c0-0.334-0.167-0.646-0.443-0.831
	c-0.077-0.051-7.67-5.24-7.67-14.203V49.06c3.949-0.987,21.327-5.857,29.941-16.964c1.578-0.06,7.203,0.003,10.272,3.803
	c3.761,4.655,4.301,6.749,4.301,28.386c0,0.553,0.447,1,1,1s1-0.447,1-1c0-22.301-0.596-24.508-4.744-29.643
	c-4.246-5.257-12.114-4.544-12.445-4.512c-0.279,0.028-0.534,0.171-0.702,0.396c-8.975,11.989-29.633,16.722-29.841,16.768
	c-0.457,0.102-0.782,0.508-0.782,0.976v18.455c0,8.807,6.341,14.208,8.113,15.546V92.58c0,0.866,0.088,1.71,0.219,2.539
	c-20.569-0.141-27.596-3.863-29.583-5.352c15.569-13.18,13.541-27.688,13.289-29.151v-1.935c0.002-0.051,0.015-0.098,0.015-0.15
	V45.025c0-0.051-0.013-0.099-0.015-0.15v-1.881c0-17.78,14.465-32.245,32.245-32.245s32.245,14.465,32.245,32.245l0.004,19.885
	c-0.017,0.194-0.126,1.687,0.118,3.973c-0.123,2.293-0.645,5.142-2.31,7.062c-1.272,1.468-3.012,2.182-5.317,2.182H56.561
	c0.002-0.06,0.009-0.118,0.009-0.178c0-3.771-3.068-6.84-6.841-6.84c-3.772,0-6.841,3.068-6.841,6.84
	c0,3.772,3.069,6.841,6.841,6.841c3.01,0,5.567-1.957,6.479-4.663h16.959c2.882,0,5.181-0.968,6.833-2.876
	c0.809-0.935,1.386-2.027,1.808-3.164c1.486,5.251,4.806,11.886,12.153,17.515C91.395,91.431,83.019,96.17,64.245,96.383z
	 M49.729,80.76c-2.669,0-4.841-2.172-4.841-4.841s2.171-4.84,4.841-4.84c2.669,0,4.841,2.171,4.841,4.84S52.398,80.76,49.729,80.76z
	"/>
</svg>
